<svg xmlns="http://www.w3.org/2000/svg" viewBox="0 0 1000 1000" width="1000" height="1000" role="img" aria-labelledby="title desc">
  <title id="title">PanLUNA logo</title>
  <desc id="desc">A ring formed of three biosignal traces around a crescent-moon core: a gold EEG rhythm (top right), a coral ECG with three QRS complexes (bottom), and a teal PPG pulse with three beats (left). Three junction nodes mark where the modalities meet.</desc>

  <defs>
    <linearGradient id="lunaSphere" x1="390" y1="500" x2="610" y2="500" gradientUnits="userSpaceOnUse">
      <stop offset="0%" stop-color="#5D5487"/>
      <stop offset="44%" stop-color="#8C88B9"/>
      <stop offset="76%" stop-color="#C9C2CF"/>
      <stop offset="100%" stop-color="#F1ECE9"/>
    </linearGradient>

    <radialGradient id="halo" cx="50%" cy="50%" r="56%">
      <stop offset="0%" stop-color="#4B4585" stop-opacity="0.12"/>
      <stop offset="74%" stop-color="#4B4585" stop-opacity="0.035"/>
      <stop offset="100%" stop-color="#4B4585" stop-opacity="0"/>
    </radialGradient>

    <filter id="softShadow" x="-20%" y="-20%" width="140%" height="140%">
      <feDropShadow dx="0" dy="10" stdDeviation="12" flood-color="#312C5F" flood-opacity="0.10"/>
    </filter>
      <radialGradient id="moonFace" cx="38%" cy="33%" r="80%">
      <stop offset="0%" stop-color="#FCF4DD"/><stop offset="52%" stop-color="#F3DA98"/><stop offset="100%" stop-color="#E3BA60"/>
    </radialGradient>
  </defs>

  <circle cx="500" cy="500" r="376" fill="url(#halo)"/>
  <circle cx="500" cy="500" r="322" fill="none" stroke="#4B4585" stroke-opacity="0.08" stroke-width="3"/>

  <g fill="none" stroke-linecap="round" stroke-linejoin="round" stroke-width="28" filter="url(#softShadow)">
    <path
      d="M 222.87 660.0 L 222.21 658.86 L 221.56 657.72 L 220.92 656.58 L 220.27 655.43 L 219.63 654.29 L 218.99 653.14 L 218.35 651.99 L 217.71 650.84 L 217.06 649.7 L 216.41 648.55 L 215.75 647.42 L 215.07 646.29 L 214.36 645.17 L 213.62 644.07 L 212.83 642.99 L 211.99 641.94 L 211.06 640.92 L 210.05 639.95 L 208.92 639.02 L 207.65 638.16 L 206.22 637.36 L 204.61 636.64 L 202.8 635.99 L 200.77 635.44 L 198.5 634.98 L 195.99 634.61 L 193.24 634.32 L 190.27 634.11 L 187.09 633.96 L 183.74 633.86 L 180.27 633.78 L 176.75 633.7 L 173.24 633.58 L 169.81 633.4 L 166.57 633.13 L 163.58 632.72 L 160.93 632.16 L 158.69 631.42 L 156.92 630.48 L 155.68 629.34 L 155.08 628.27 L 154.98 627.99 L 154.58 626.53 L 154.35 625.0 L 154.29 623.42 L 154.41 621.78 L 154.69 620.09 L 155.12 618.36 L 155.7 616.58 L 156.41 614.77 L 157.25 612.92 L 158.19 611.06 L 159.23 609.18 L 160.36 607.28 L 161.55 605.38 L 162.79 603.48 L 164.07 601.58 L 165.37 599.68 L 166.68 597.8 L 167.99 595.94 L 169.29 594.1 L 170.56 592.27 L 171.79 590.48 L 172.98 588.7 L 174.12 586.96 L 175.2 585.24 L 176.22 583.56 L 177.17 581.9 L 178.04 580.27 L 178.84 578.67 L 179.56 577.11 L 180.18 575.57 L 180.72 574.06 L 181.16 572.58 L 181.5 571.12 L 181.73 569.7 L 181.82 568.31 L 181.79 566.96 L 181.6 565.63 L 181.26 564.34 L 180.75 563.08 L 180.06 561.85 L 179.19 560.65 L 178.16 559.48 L 176.98 558.33 L 175.68 557.19 L 174.29 556.05 L 172.87 554.92 L 171.47 553.76 L 170.15 552.59 L 168.97 551.38 L 168.0 550.14 L 167.27 548.85 L 166.82 547.52 L 166.71 546.84 L 166.65 546.15 L 166.58 544.77 L 166.59 543.37 L 166.67 541.97 L 166.82 540.56 L 167.04 539.15 L 167.33 537.73 L 167.67 536.31 L 168.07 534.89 L 168.52 533.46 L 169.0 532.04 L 169.52 530.62 L 170.06 529.21 L 170.63 527.79 L 171.2 526.39 L 171.78 524.98 L 172.36 523.59 L 172.93 522.2 L 173.49 520.81 L 174.03 519.43 L 174.55 518.06 L 175.05 516.7 L 175.53 515.34 L 175.97 513.98 L 176.39 512.63 L 176.78 511.29 L 177.13 509.95 L 177.46 508.61 L 177.76 507.28 L 178.04 505.95 L 178.29 504.62 L 178.51 503.3 L 178.72 501.98 L 178.9 500.66 L 179.07 499.34 L 179.22 498.02 L 179.35 496.71 L 179.48 495.39 L 179.59 494.08 L 179.7 492.76 L 179.8 491.45 L 179.89 490.14 L 179.98 488.82 L 180.07 487.51 L 180.16 486.2 L 180.24 484.89 L 180.33 483.58 L 180.42 482.26 L 180.51 480.95 L 180.6 479.64 L 180.7 478.33 L 180.8 477.02 L 180.9 475.71 L 181.01 474.4 L 181.12 473.09 L 181.24 471.78 L 181.36 470.47 L 181.48 469.17 L 181.61 467.86 L 181.75 466.55 L 181.89 465.24 L 182.04 463.94 L 182.19 462.63 L 182.34 461.33 L 182.51 460.02 L 182.67 458.72 L 182.85 457.42 L 183.02 456.12 L 183.21 454.81 L 183.39 453.51 L 183.59 452.21 L 183.79 450.91 L 183.99 449.62 L 184.2 448.32 L 184.42 447.02 L 184.64 445.73 L 184.86 444.43 L 185.09 443.14 L 185.32 441.85 L 185.56 440.55 L 185.81 439.26 L 186.05 437.97 L 186.3 436.68 L 186.55 435.39 L 186.79 434.1 L 187.04 432.81 L 187.27 431.51 L 187.49 430.21 L 187.7 428.91 L 187.87 427.6 L 188.01 426.28 L 188.1 424.95 L 188.13 423.6 L 188.08 422.23 L 187.93 420.83 L 187.65 419.39 L 187.24 417.91 L 186.66 416.39 L 185.89 414.8 L 184.92 413.14 L 183.72 411.41 L 182.28 409.6 L 180.59 407.7 L 178.67 405.71 L 176.53 403.64 L 174.19 401.48 L 171.69 399.26 L 169.08 396.97 L 166.43 394.64 L 163.82 392.29 L 161.31 389.95 L 159.0 387.65 L 156.97 385.42 L 155.3 383.29 L 154.06 381.28 L 153.31 379.43 L 153.1 377.76 L 153.32 376.55 L 153.43 376.27 L 154.06 374.89 L 154.86 373.58 L 155.84 372.33 L 156.98 371.15 L 158.28 370.03 L 159.73 368.98 L 161.32 367.99 L 163.03 367.06 L 164.85 366.19 L 166.77 365.37 L 168.78 364.59 L 170.86 363.86 L 172.99 363.17 L 175.17 362.51 L 177.37 361.88 L 179.58 361.26 L 181.8 360.67 L 184.0 360.08 L 186.18 359.5 L 188.32 358.92 L 190.42 358.34 L 192.47 357.75 L 194.47 357.15 L 196.4 356.53 L 198.26 355.89 L 200.05 355.23 L 201.77 354.54 L 201.77 354.54 L 203.41 353.83 L 204.96 353.09 L 206.43 352.31 L 207.82 351.5 L 209.11 350.65 L 210.3 349.76 L 211.38 348.81 L 212.35 347.81 L 213.2 346.75 L 213.91 345.61 L 214.47 344.4 L 214.89 343.11 L 215.15 341.72 L 215.26 340.25 L 215.23 338.69 L 215.06 337.05 L 214.8 335.34 L 214.46 333.58 L 214.1 331.79 L 213.77 330.01 L 213.52 328.26 L 213.39 326.58 L 213.44 325.0 L 213.71 323.55 L 214.22 322.24 L 214.58 321.65 L 214.97 321.08 L 215.81 319.97 L 216.71 318.91 L 217.67 317.89 L 218.7 316.91 L 219.77 315.97 L 220.9 315.06 L 222.08 314.2 L 223.3 313.36 L 224.56 312.56 L 225.84 311.78 L 227.15 311.03 L 228.48 310.29 L 229.82 309.57 L 231.16 308.87 L 232.51 308.16 L 233.85 307.46 L 235.18 306.77 L 236.5 306.07 L 237.8 305.36 L 239.08 304.64 L 240.34 303.92 L 241.58 303.18 L 242.79 302.43 L 243.98 301.66 L 245.14 300.88 L 246.28 300.09 L 247.39 299.27 L 248.47 298.45 L 249.54 297.61 L 250.58 296.75 L 251.6 295.88 L 252.61 295.0 L 253.6 294.11 L 254.57 293.2 L 255.54 292.29 L 256.49 291.37 L 257.43 290.44 L 258.36 289.51 L 259.29 288.57 L 260.21 287.63 L 261.12 286.68 L 262.04 285.74 L 262.95 284.79 L 263.86 283.84 L 264.77 282.89 L 265.68 281.94 L 266.59 280.99 L 267.5 280.04 L 268.41 279.1 L 269.33 278.16 L 270.25 277.22 L 271.17 276.28 L 272.09 275.35 L 273.02 274.41 L 273.95 273.49 L 274.88 272.56 L 275.82 271.64 L 276.76 270.72 L 277.71 269.81 L 278.65 268.9 L 279.61 267.99 L 280.56 267.09 L 281.52 266.19 L 282.48 265.3 L 283.45 264.4 L 284.42 263.52 L 285.39 262.63 L 286.37 261.75 L 287.35 260.88 L 288.33 260.01 L 289.32 259.14 L 290.31 258.28 L 291.3 257.42 L 292.3 256.56 L 293.3 255.71 L 294.31 254.86 L 295.31 254.02 L 296.33 253.18 L 297.34 252.34 L 298.35 251.51 L 299.37 250.68 L 300.39 249.85 L 301.41 249.02 L 302.43 248.19 L 303.45 247.36 L 304.46 246.52 L 305.46 245.67 L 306.46 244.8 L 307.43 243.91 L 308.39 242.99 L 309.31 242.03 L 310.2 241.01 L 311.04 239.92 L 311.83 238.75 L 312.54 237.48 L 313.18 236.08 L 313.71 234.54 L 314.15 232.83 L 314.46 230.93 L 314.66 228.83 L 314.72 226.52 L 314.65 223.98 L 314.45 221.23 L 314.14 218.26 L 313.74 215.1 L 313.25 211.79 L 312.73 208.36 L 312.2 204.88 L 311.7 201.4 L 311.29 198.0 L 311.0 194.75 L 310.88 191.73 L 310.97 189.03 L 311.31 186.69 L 311.92 184.79 L 312.83 183.37 L 313.78 182.59 L 314.04 182.45 L 315.41 181.79 L 316.87 181.31 L 318.42 180.98 L 320.06 180.81 L 321.77 180.79 L 323.56 180.91 L 325.41 181.17 L 327.31 181.56 L 329.27 182.07 L 331.27 182.67 L 333.31 183.37 L 335.37 184.15 L 337.45 184.99 L 339.54 185.88 L 341.63 186.81 L 343.72 187.76 L 345.8 188.73 L 347.86 189.69 L 349.91 190.65 L 351.92 191.59 L 353.91 192.49 L 355.86 193.36 L 357.77 194.17 L 359.65 194.94 L 361.49 195.65 L 363.28 196.3 L 365.04 196.87 L 365.04 196.87 L 366.75 197.38 L 368.42 197.81 L 370.05 198.17 L 371.63 198.43 L 373.16 198.61 L 374.65 198.69 L 376.09 198.66 L 377.47 198.52 L 378.8 198.25 L 380.08 197.84 L 381.29 197.27 L 382.44 196.55 L 383.53 195.66 L 384.56 194.6 L 385.54 193.38 L 386.47 192.02 L 387.36 190.54 L 388.24 188.97 L 389.11 187.38 L 390.0 185.8 L 390.93 184.29 L 391.91 182.92 L 392.97 181.75 L 394.11 180.8 L 395.34 180.13 L 396.0 179.91 L 396.66 179.73 L 398.02 179.42 L 399.39 179.18 L 400.78 179.02 L 402.2 178.92 L 403.63 178.9 L 405.07 178.93 L 406.53 179.03 L 408.0 179.17 L 409.48 179.36 L 410.97 179.59 L 412.45 179.86 L 413.94 180.15 L 415.43 180.46 L 416.92 180.78 L 418.4 181.11 L 419.88 181.43 L 421.35 181.75 L 422.81 182.06 L 424.26 182.36 L 425.7 182.63 L 427.13 182.89 L 428.55 183.12 L 429.96 183.32 L 431.37 183.5 L 432.76 183.65 L 434.14 183.77 L 435.51 183.86 L 436.88 183.92 L 438.23 183.96 L 439.58 183.98 L 440.92 183.97 L 442.26 183.94 L 443.59 183.89 L 444.92 183.83 L 446.24 183.75 L 447.56 183.65 L 448.88 183.55 L 450.19 183.43 L 451.51 183.31 L 452.82 183.18 L 454.13 183.04 L 455.44 182.9 L 456.74 182.76 L 458.05 182.62 L 459.36 182.48 L 460.66 182.34 L 461.97 182.19 L 463.28 182.06 L 464.59 181.92 L 465.89 181.79 L 467.2 181.66 L 468.51 181.53 L 469.82 181.41 L 471.13 181.29 L 472.44 181.18 L 473.75 181.07 L 475.06 180.97 L 476.37 180.87 L 477.68 180.78 L 478.99 180.69 L 480.3 180.61 L 481.61 180.53 L 482.92 180.45 L 484.24 180.39 L 485.55 180.33 L 486.86 180.27 L 488.18 180.22 L 489.49 180.17 L 490.8 180.13 L 492.12 180.1 L 493.43 180.07 L 494.74 180.04 L 496.06 180.02 L 497.37 180.01 L 498.69 180.0 L 500.0 180.0"
      stroke="#22B29D"/>

    <path
      d="M 500.0 180.0 L 505.13 181.73 L 510.24 182.22 L 515.36 182.43 L 520.49 182.53 L 525.62 182.58 L 530.78 182.59 L 535.95 182.61 L 541.13 182.67 L 546.31 182.83 L 551.49 183.14 L 556.66 183.61 L 561.84 184.14 L 567.04 184.58 L 572.34 184.73 L 577.78 184.42 L 583.4 183.66 L 589.15 182.66 L 594.93 181.88 L 600.51 181.96 L 605.64 183.56 L 610.08 187.14 L 613.69 192.79 L 616.49 200.14 L 618.72 208.41 L 620.75 216.6 L 623.01 223.71 L 625.91 229.03 L 629.72 232.2 L 634.56 233.25 L 640.45 232.4 L 647.35 229.92 L 655.27 225.99 L 664.23 220.76 L 674.18 214.48 L 684.84 207.7 L 695.63 201.4 L 705.59 196.95 L 713.6 195.82 L 718.57 199.16 L 719.88 207.39 L 717.61 219.92 L 712.67 235.2 L 706.62 251.06 L 701.28 265.29 L 698.3 276.17 L 698.64 282.93 L 702.42 285.83 L 708.96 285.93 L 717.08 284.66 L 725.49 283.41 L 733.19 283.13 L 739.63 284.24 L 744.67 286.73 L 748.42 290.41 L 750.98 295.08 L 752.32 300.68 L 752.31 307.2 L 750.87 314.63 L 748.18 322.72 L 744.86 330.98 L 741.91 338.71 L 740.5 345.19 L 741.7 349.87 L 746.08 352.59 L 753.59 353.59 L 763.48 353.49 L 774.56 353.07 L 785.46 353.1 L 794.98 354.16 L 802.34 356.54 L 807.25 360.23 L 809.87 365.02 L 810.62 370.61 L 810.0 376.68 L 808.5 383.0 L 806.44 389.4 L 804.05 395.76 L 801.5 402.04 L 798.98 408.15 L 796.71 414.06 L 795.0 419.68 L 794.17 424.97 L 794.48 429.93 L 796.06 434.57 L 798.89 438.98 L 802.74 443.26 L 807.23 447.53 L 811.92 451.88 L 816.38 456.4 L 820.32 461.11 L 823.58 465.99 L 826.2 471.02 L 828.31 476.16 L 830.11 481.37 L 831.76 486.63 L 833.3 491.94 L 834.71 497.3 L 835.88 502.71 L 836.71 508.14 L 837.12 513.59 L 837.08 519.03 L 836.65 524.45 L 835.88 529.84 L 834.8 535.19 L 833.37 540.48 L 831.51 545.68 L 829.08 550.76 L 825.97 555.67 L 822.13 560.37 L 817.63 564.84 L 812.67 569.1 L 807.56 573.18 L 802.68 577.2 L 798.4 581.25 L 795.01 585.45 L 792.63 589.9 L 791.27 594.64 L 790.76 599.68 L 790.86 604.98 L 791.31 610.48 L 791.89 616.11 L 792.42 621.81 L 792.73 627.52 L 792.67 633.14 L 792.03 638.57 L 790.64 643.69 L 788.34 648.38 L 785.15 652.6 L 781.32 656.43 L 777.13 660.0"
      stroke="#E2A63C"
      stroke-width="26"/>

    <path
      d="M 777.13 660.0 L 776.47 661.14 L 775.8 662.27 L 775.14 663.4 L 774.46 664.53 L 773.78 665.66 L 773.1 666.78 L 772.41 667.9 L 771.72 669.02 L 771.03 670.13 L 770.33 671.24 L 769.62 672.35 L 768.91 673.46 L 768.2 674.56 L 767.49 675.67 L 766.8 676.79 L 766.13 677.92 L 765.52 679.1 L 765.02 680.35 L 764.68 681.71 L 764.53 683.21 L 764.58 684.86 L 764.78 686.62 L 764.98 688.4 L 765.01 690.06 L 764.69 691.48 L 763.9 692.56 L 762.65 693.31 L 761.06 693.8 L 759.31 694.15 L 757.57 694.51 L 755.99 694.97 L 754.6 695.57 L 753.42 696.32 L 752.38 697.18 L 751.45 698.12 L 750.58 699.11 L 749.73 700.12 L 748.9 701.13 L 748.07 702.15 L 747.23 703.16 L 746.4 704.18 L 745.56 705.19 L 744.71 706.19 L 743.86 707.2 L 743.01 708.2 L 742.15 709.19 L 741.29 710.19 L 740.43 711.18 L 739.56 712.16 L 738.68 713.14 L 737.81 714.12 L 737.81 714.12 L 734.81 713.18 L 731.83 712.21 L 730.19 711.67 L 733.1 715.14 L 739.5 722.88 L 745.85 730.68 L 752.14 738.53 L 758.37 746.44 L 764.53 754.41 L 767.59 758.41 L 763.19 755.21 L 754.42 748.74 L 745.72 742.21 L 737.06 735.61 L 728.47 728.94 L 719.94 722.21 L 714.68 718.0 L 714.98 718.99 L 715.78 721.62 L 716.55 724.25 L 717.31 726.89 L 718.05 729.54 L 718.77 732.2 L 719.06 733.27 L 718.48 733.81 L 717.52 734.7 L 716.55 735.6 L 715.58 736.48 L 714.61 737.37 L 713.63 738.25 L 712.65 739.12 L 711.67 739.99 L 710.68 740.86 L 709.69 741.72 L 708.7 742.58 L 707.7 743.44 L 706.7 744.29 L 705.7 745.14 L 704.7 745.99 L 703.7 746.85 L 702.71 747.71 L 701.73 748.59 L 700.77 749.5 L 699.84 750.44 L 698.97 751.46 L 698.16 752.56 L 697.43 753.77 L 696.81 755.12 L 696.3 756.64 L 695.91 758.32 L 695.63 760.16 L 695.43 762.14 L 695.28 764.19 L 695.11 766.25 L 694.86 768.21 L 694.46 769.98 L 693.85 771.47 L 692.98 772.61 L 691.83 773.36 L 690.41 773.73 L 688.76 773.74 L 686.92 773.47 L 684.97 773.02 L 682.98 772.48 L 681.0 771.94 L 679.09 771.48 L 677.28 771.16 L 675.59 770.99 L 674.02 771.0 L 672.55 771.16 L 671.18 771.46 L 669.89 771.88 L 668.65 772.38 L 667.45 772.95 L 666.28 773.55 L 665.13 774.18 L 663.99 774.83 L 662.85 775.49 L 661.71 776.15 L 660.57 776.8 L 659.43 777.46 L 658.29 778.11 L 657.15 778.76 L 656.0 779.4 L 654.85 780.04 L 653.7 780.67 L 652.55 781.3 L 651.39 781.92 L 650.23 782.54 L 649.07 783.16 L 647.91 783.77 L 646.74 784.37 L 645.57 784.97 L 644.4 785.57 L 643.22 786.16 L 642.05 786.74 L 640.87 787.33 L 639.69 787.9 L 638.5 788.47 L 637.32 789.04 L 636.13 789.6 L 634.94 790.16 L 633.75 790.71 L 632.55 791.26 L 631.36 791.8 L 630.16 792.33 L 628.95 792.87 L 627.75 793.39 L 626.54 793.92 L 625.34 794.43 L 624.13 794.95 L 622.91 795.45 L 621.7 795.95 L 620.48 796.45 L 619.26 796.94 L 618.04 797.43 L 616.82 797.91 L 615.6 798.39 L 614.37 798.86 L 613.14 799.33 L 611.91 799.79 L 610.68 800.25 L 609.45 800.7 L 608.21 801.15 L 606.97 801.59 L 605.73 802.03 L 604.49 802.46 L 603.25 802.89 L 602.0 803.31 L 600.76 803.72 L 599.51 804.13 L 598.26 804.54 L 597.01 804.94 L 595.76 805.34 L 594.5 805.73 L 593.25 806.12 L 591.99 806.51 L 590.74 806.92 L 589.5 807.36 L 588.28 807.87 L 587.09 808.51 L 585.95 809.33 L 584.88 810.38 L 583.86 811.68 L 582.88 813.16 L 581.89 814.65 L 580.84 815.94 L 579.68 816.82 L 578.38 817.14 L 576.95 816.91 L 575.41 816.26 L 573.84 815.41 L 572.28 814.57 L 570.77 813.9 L 569.33 813.47 L 567.94 813.28 L 566.59 813.28 L 565.27 813.4 L 563.97 813.59 L 562.67 813.82 L 561.38 814.06 L 560.09 814.31 L 558.8 814.55 L 557.51 814.79 L 556.21 815.02 L 554.92 815.25 L 553.63 815.47 L 552.33 815.69 L 551.03 815.9 L 549.73 816.11 L 548.44 816.31 L 547.14 816.51 L 545.84 816.7 L 544.54 816.89 L 542.85 814.24 L 541.18 811.58 L 540.28 810.12 L 540.27 814.64 L 540.2 824.69 L 540.05 834.74 L 539.82 844.8 L 539.51 854.86 L 539.11 864.93 L 538.88 869.96 L 537.57 864.67 L 535.01 854.09 L 532.54 843.48 L 530.16 832.87 L 527.86 822.24 L 525.65 811.6 L 524.32 804.99 L 523.92 805.95 L 522.84 808.47 L 521.75 810.98 L 520.63 813.49 L 519.49 816.0 L 518.33 818.5 L 517.86 819.5 L 517.08 819.54 L 515.76 819.61 L 514.45 819.67 L 513.14 819.73 L 511.82 819.78 L 510.51 819.83 L 509.2 819.87 L 507.88 819.9 L 506.57 819.93 L 505.26 819.96 L 503.94 819.98 L 502.63 819.99 L 501.31 820.0 L 500.0 820.01 L 498.69 820.02 L 497.37 820.03 L 496.06 820.06 L 494.74 820.1 L 493.42 820.18 L 492.11 820.31 L 490.78 820.52 L 489.46 820.84 L 488.12 821.3 L 486.77 821.94 L 485.41 822.77 L 484.03 823.81 L 482.63 825.04 L 481.21 826.43 L 479.78 827.91 L 478.33 829.37 L 476.87 830.72 L 475.43 831.82 L 474.0 832.56 L 472.6 832.88 L 471.24 832.71 L 469.92 832.08 L 468.64 831.03 L 467.4 829.64 L 466.2 828.04 L 465.02 826.35 L 463.85 824.66 L 462.69 823.09 L 461.51 821.67 L 460.32 820.46 L 459.11 819.45 L 457.88 818.64 L 456.64 817.99 L 455.38 817.48 L 454.11 817.06 L 452.83 816.73 L 451.54 816.44 L 450.25 816.18 L 448.96 815.94 L 447.67 815.71 L 446.37 815.48 L 445.08 815.26 L 443.79 815.03 L 442.49 814.79 L 441.2 814.55 L 439.91 814.31 L 438.62 814.06 L 437.33 813.8 L 436.04 813.54 L 434.75 813.28 L 433.47 813.01 L 432.18 812.73 L 430.9 812.45 L 429.62 812.16 L 428.34 811.87 L 427.06 811.58 L 425.78 811.27 L 424.5 810.97 L 423.22 810.65 L 421.95 810.34 L 420.67 810.01 L 419.4 809.68 L 418.13 809.35 L 416.86 809.01 L 415.59 808.67 L 414.33 808.32 L 413.06 807.96 L 411.8 807.6 L 410.53 807.24 L 409.27 806.87 L 408.01 806.49 L 406.76 806.11 L 405.5 805.73 L 404.24 805.34 L 402.99 804.94 L 401.74 804.54 L 400.49 804.13 L 399.24 803.72 L 398.0 803.31 L 396.75 802.89 L 395.51 802.46 L 394.27 802.03 L 393.03 801.59 L 391.79 801.15 L 390.55 800.7 L 389.32 800.25 L 388.09 799.79 L 386.86 799.33 L 385.63 798.86 L 384.4 798.39 L 383.18 797.91 L 381.96 797.43 L 380.74 796.94 L 379.52 796.45 L 378.3 795.95 L 377.09 795.45 L 375.87 794.95 L 374.66 794.44 L 373.45 793.93 L 372.23 793.44 L 371.0 792.98 L 369.73 792.59 L 368.41 792.31 L 367.01 792.21 L 365.51 792.32 L 363.89 792.66 L 362.19 793.16 L 360.48 793.67 L 358.85 793.99 L 357.39 793.92 L 356.19 793.33 L 355.24 792.23 L 354.48 790.75 L 353.83 789.08 L 353.17 787.44 L 352.45 785.95 L 351.61 784.7 L 350.67 783.66 L 349.64 782.79 L 348.55 782.03 L 347.43 781.35 L 346.29 780.69 L 345.15 780.04 L 344.0 779.4 L 342.85 778.76 L 341.71 778.11 L 340.57 777.46 L 339.43 776.8 L 338.3 776.14 L 337.16 775.47 L 336.03 774.8 L 334.91 774.12 L 333.78 773.44 L 332.66 772.76 L 331.54 772.07 L 330.43 771.38 L 330.43 771.38 L 330.84 768.26 L 331.27 765.16 L 331.52 763.45 L 328.61 766.91 L 322.09 774.57 L 315.52 782.17 L 308.87 789.73 L 302.16 797.24 L 295.39 804.69 L 291.98 808.4 L 294.37 803.51 L 299.22 793.75 L 304.14 784.04 L 309.14 774.38 L 314.21 764.76 L 319.36 755.18 L 322.59 749.27 L 321.66 749.75 L 319.22 750.98 L 316.76 752.2 L 314.29 753.41 L 311.81 754.6 L 309.31 755.77 L 308.31 756.23 L 307.68 755.76 L 306.63 754.97 L 305.59 754.17 L 304.55 753.37 L 303.51 752.57 L 302.47 751.76 L 301.44 750.95 L 300.41 750.13 L 299.38 749.31 L 298.36 748.48 L 297.34 747.65 L 296.33 746.82 L 295.31 745.98 L 294.3 745.14 L 293.29 744.3 L 292.27 743.47 L 291.25 742.64 L 290.22 741.83 L 289.16 741.04 L 288.06 740.3 L 286.91 739.61 L 285.69 739.0 L 284.37 738.5 L 282.93 738.12 L 281.35 737.88 L 279.62 737.79 L 277.76 737.83 L 275.78 737.98 L 273.73 738.19 L 271.68 738.38 L 269.7 738.48 L 267.89 738.39 L 266.31 738.04 L 265.04 737.38 L 264.1 736.38 L 263.5 735.05 L 263.2 733.42 L 263.14 731.57 L 263.25 729.57 L 263.43 727.51 L 263.62 725.47 L 263.74 723.51 L 263.75 721.67 L 263.61 719.98 L 263.34 718.43 L 262.92 717.02 L 262.39 715.72 L 261.75 714.52 L 261.04 713.39 L 260.28 712.31 L 259.48 711.26 L 258.66 710.23 L 257.82 709.22 L 256.98 708.21 L 256.13 707.2 L 255.28 706.2 L 254.44 705.19 L 253.6 704.18 L 252.77 703.16 L 251.93 702.15 L 251.11 701.13 L 250.28 700.1 L 249.46 699.08 L 248.65 698.05 L 247.84 697.01 L 247.03 695.97 L 246.23 694.93 L 245.43 693.89 L 244.63 692.84 L 243.84 691.79 L 243.06 690.74 L 242.28 689.68 L 241.5 688.62 L 240.73 687.56 L 239.96 686.49 L 239.2 685.42 L 238.44 684.35 L 237.68 683.28 L 236.93 682.2 L 236.19 681.11 L 235.45 680.03 L 234.71 678.94 L 233.98 677.85 L 233.25 676.76 L 232.52 675.66 L 231.8 674.56 L 231.09 673.46 L 230.38 672.35 L 229.67 671.24 L 228.97 670.13 L 228.28 669.02 L 227.59 667.9 L 226.9 666.78 L 226.22 665.66 L 225.54 664.53 L 224.86 663.4 L 224.2 662.27 L 223.53 661.14 L 222.87 660.0"
      stroke="#E85C4A"/>
  </g>

  <g>
    <circle cx="500" cy="180" r="17" fill="#FBF7EF"/>
    <circle cx="500" cy="180" r="17" fill="none" stroke="#5A5591" stroke-opacity="0.42" stroke-width="6"/>
    <circle cx="777.13" cy="660" r="17" fill="#FBF7EF"/>
    <circle cx="777.13" cy="660" r="17" fill="none" stroke="#5A5591" stroke-opacity="0.42" stroke-width="6"/>
    <circle cx="222.87" cy="660" r="17" fill="#FBF7EF"/>
    <circle cx="222.87" cy="660" r="17" fill="none" stroke="#5A5591" stroke-opacity="0.42" stroke-width="6"/>
  </g>

  <g filter="url(#softShadow)">
    <g><circle cx="500" cy="450" r="51" fill="url(#moonFace)"/><circle cx="487" cy="439" r="9" fill="#D6AB4E" opacity="0.5"/><circle cx="512" cy="462" r="6" fill="#D6AB4E" opacity="0.5"/><circle cx="484" cy="462" r="5" fill="#D6AB4E" opacity="0.5"/><circle cx="506" cy="435" r="4" fill="#D6AB4E" opacity="0.5"/><circle cx="500" cy="450" r="51" fill="none" stroke="#F8E9B4" stroke-opacity="0.5" stroke-width="1.5"/></g>
    <g transform="translate(500 570) scale(0.7766) translate(-234.75 34.70)">
      <path transform="translate(0.00 0)" d="M 59.70 -47.59 Q 59.70 -41.50 56.89 -36.45 Q 54.09 -31.41 48.30 -28.30 Q 42.50 -25.20 33.91 -25.20 L 23.30 -25.20 L 23.30 -0.00 L 6.20 -0.00 L 6.20 -70.20 L 33.91 -70.20 Q 42.30 -70.20 48.09 -67.30 Q 53.91 -64.41 56.80 -59.30 Q 59.70 -54.20 59.70 -47.59 Z M 32.59 -38.80 Q 37.50 -38.80 39.89 -41.09 Q 42.30 -43.41 42.30 -47.59 Q 42.30 -51.80 39.89 -54.09 Q 37.50 -56.41 32.59 -56.41 L 23.30 -56.41 L 23.30 -38.80 L 32.59 -38.80 Z" fill="#22B29D"/>
      <path transform="translate(62.40 0)" d="M 2.80 -28.00 Q 2.80 -36.59 6.05 -43.09 Q 9.30 -49.59 14.89 -53.09 Q 20.50 -56.59 27.41 -56.59 Q 33.30 -56.59 37.75 -54.19 Q 42.20 -51.80 44.59 -47.91 L 44.59 -55.80 L 61.70 -55.80 L 61.70 -0.00 L 44.59 -0.00 L 44.59 -7.91 Q 42.09 -4.00 37.64 -1.59 Q 33.20 0.80 27.30 0.80 Q 20.50 0.80 14.89 -2.75 Q 9.30 -6.30 6.05 -12.84 Q 2.80 -19.41 2.80 -28.00 Z M 44.59 -27.91 Q 44.59 -34.30 41.05 -38.00 Q 37.50 -41.70 32.41 -41.70 Q 27.30 -41.70 23.75 -38.05 Q 20.20 -34.41 20.20 -28.00 Q 20.20 -21.59 23.75 -17.84 Q 27.30 -14.09 32.41 -14.09 Q 37.50 -14.09 41.05 -17.80 Q 44.59 -21.50 44.59 -27.91 Z" fill="#E2A63C"/>
      <path transform="translate(130.30 0)" d="M 40.20 -56.41 Q 50.00 -56.41 55.84 -50.05 Q 61.70 -43.70 61.70 -32.59 L 61.70 -0.00 L 44.70 -0.00 L 44.70 -30.30 Q 44.70 -35.91 41.80 -39.00 Q 38.91 -42.09 34.00 -42.09 Q 29.09 -42.09 26.19 -39.00 Q 23.30 -35.91 23.30 -30.30 L 23.30 -0.00 L 6.20 -0.00 L 6.20 -55.80 L 23.30 -55.80 L 23.30 -48.41 Q 25.91 -52.09 30.30 -54.25 Q 34.70 -56.41 40.20 -56.41 Z" fill="#E85C4A"/>
      <path transform="translate(197.70 0)" d="M 23.30 -13.20 L 45.70 -13.20 L 45.70 -0.00 L 6.20 -0.00 L 6.20 -70.20 L 23.30 -70.20 L 23.30 -13.20 Z M 70.70 -70.20 L 70.70 -28.20 Q 70.70 -21.91 73.79 -18.50 Q 76.90 -15.09 82.90 -15.09 Q 88.90 -15.09 92.09 -18.50 Q 95.29 -21.91 95.29 -28.20 L 95.29 -70.20 L 112.40 -70.20 L 112.40 -28.30 Q 112.40 -18.91 108.40 -12.41 Q 104.40 -5.91 97.65 -2.59 Q 90.90 0.70 82.61 0.70 Q 74.29 0.70 67.75 -2.55 Q 61.20 -5.80 57.40 -12.34 Q 53.61 -18.91 53.61 -28.30 L 53.61 -70.20 L 70.70 -70.20 Z M 187.20 -0.00 L 170.11 -0.00 L 141.50 -43.30 L 141.50 -0.00 L 124.40 -0.00 L 124.40 -70.20 L 141.50 -70.20 L 170.11 -26.70 L 170.11 -70.20 L 187.20 -70.20 L 187.20 -0.00 Z M 243.31 -12.41 L 217.10 -12.41 L 212.90 -0.00 L 194.99 -0.00 L 220.40 -70.20 L 240.20 -70.20 L 265.60 -0.00 L 247.49 -0.00 L 243.31 -12.41 Z M 238.90 -25.59 L 230.20 -51.30 L 221.60 -25.59 L 238.90 -25.59 Z" fill="#4B4585"/>
    </g>
  </g>
</svg>
